# xmcd
#
# Track frame offsets:
#	150
#	19059
#	40493
#	58062
#	75043
#	91483
#	111588
#	128918
#	147729
#	165164
#	181603
#	198346
#	212836
#	232737
#	247431
#	263524
#	283084
#	299734
#	320570
#
# Disc length: 4508 seconds
#
# Revision: 1
# Processed by: cddbd v1.5.1PL2 Copyright (c) Steve Scherf et al.
# Submitted via: audiograbber 1.83.01
#
DISCID=1b119a13
DTITLE=сборник - Тебе любимая - Special edition
DYEAR=2006
DGENRE=Love ballads
TTITLE0=Laid Back - Blue Lagoon
TTITLE1=Toni Braxton - Suddenly
TTITLE2=Giorgos Mazonakis - Savvato
TTITLE3=Alibi - Confession
TTITLE4=Bombay Rockers - Wild Rose
TTITLE5=Lisa Stansfield - He Touches Me (Radio Edit)
TTITLE6=The Rasmus - Sail Away
TTITLE7=Matt Goss - Fly Album Version
TTITLE8=Aaliyah - More Than A Woman
TTITLE9=Sarhat ft. Victor Lazlo - Total Disquise (Original)
TTITLE10=In Grid - Dans Tes Yeux
TTITLE11=Fabrizio Faniello - I Believe
TTITLE12=Aventura - Un Beso
TTITLE13=Chris Norman - Midnight Lady
TTITLE14=Al Bano Carrisi - Felicita
TTITLE15=C.C. Catch - Tears Won't Wash Away My Heartache
TTITLE16=Humane - Rescue Me
TTITLE17=Mark Owen - Hail Mary
TTITLE18=Patrick Nuo - Girl In The Moon
EXTD=
EXTT0=
EXTT1=
EXTT2=
EXTT3=
EXTT4=
EXTT5=
EXTT6=
EXTT7=
EXTT8=
EXTT9=
EXTT10=
EXTT11=
EXTT12=
EXTT13=
EXTT14=
EXTT15=
EXTT16=
EXTT17=
EXTT18=
PLAYORDER=
